<mxfile host="Electron" modified="2023-04-07T21:41:49.396Z" agent="Mozilla/5.0 (Windows NT 10.0; Win64; x64) AppleWebKit/537.36 (KHTML, like Gecko) draw.io/21.1.2 Chrome/106.0.5249.199 Electron/21.4.3 Safari/537.36" etag="vir65bB5hGSCcTf67-dw" version="21.1.2" type="device">
  <diagram id="33EOHbBXcNmQ16xaQVXP" name="Page-2">
    <mxGraphModel dx="1131" dy="567" grid="0" gridSize="10" guides="1" tooltips="1" connect="1" arrows="1" fold="1" page="1" pageScale="1" pageWidth="1200" pageHeight="1600" background="none" math="1" shadow="0">
      <root>
        <mxCell id="0" />
        <mxCell id="1" parent="0" />
        <mxCell id="VRkNWiCjbg5eOUHFSivB-15" value="" style="edgeStyle=orthogonalEdgeStyle;rounded=0;orthogonalLoop=1;jettySize=auto;html=1;" parent="1" source="VRkNWiCjbg5eOUHFSivB-4" target="VRkNWiCjbg5eOUHFSivB-14" edge="1">
          <mxGeometry relative="1" as="geometry" />
        </mxCell>
        <mxCell id="VRkNWiCjbg5eOUHFSivB-4" value="Análise do problema e dos dados" style="rounded=1;whiteSpace=wrap;html=1;absoluteArcSize=1;arcSize=14;strokeWidth=2;" parent="1" vertex="1">
          <mxGeometry x="262" y="118" width="100" height="100" as="geometry" />
        </mxCell>
        <mxCell id="VRkNWiCjbg5eOUHFSivB-13" value="" style="edgeStyle=orthogonalEdgeStyle;rounded=0;orthogonalLoop=1;jettySize=auto;html=1;" parent="1" source="VRkNWiCjbg5eOUHFSivB-6" target="VRkNWiCjbg5eOUHFSivB-4" edge="1">
          <mxGeometry relative="1" as="geometry" />
        </mxCell>
        <mxCell id="VRkNWiCjbg5eOUHFSivB-6" value="Problema" style="text;html=1;strokeColor=none;fillColor=none;align=center;verticalAlign=middle;whiteSpace=wrap;rounded=1;" parent="1" vertex="1">
          <mxGeometry x="282" y="31" width="60" height="30" as="geometry" />
        </mxCell>
        <mxCell id="VRkNWiCjbg5eOUHFSivB-14" value="Limpeza e transformação dos dados" style="rounded=1;whiteSpace=wrap;html=1;absoluteArcSize=1;arcSize=14;strokeWidth=2;" parent="1" vertex="1">
          <mxGeometry x="442" y="118" width="100" height="100" as="geometry" />
        </mxCell>
        <mxCell id="VRkNWiCjbg5eOUHFSivB-33" style="edgeStyle=orthogonalEdgeStyle;rounded=0;orthogonalLoop=1;jettySize=auto;html=1;entryX=0;entryY=0.5;entryDx=0;entryDy=0;" parent="1" source="VRkNWiCjbg5eOUHFSivB-17" target="VRkNWiCjbg5eOUHFSivB-19" edge="1">
          <mxGeometry relative="1" as="geometry" />
        </mxCell>
        <mxCell id="VRkNWiCjbg5eOUHFSivB-17" value="Selecionar e treinar modelos" style="rounded=1;whiteSpace=wrap;html=1;absoluteArcSize=1;arcSize=14;strokeWidth=2;" parent="1" vertex="1">
          <mxGeometry x="622" y="118" width="100" height="100" as="geometry" />
        </mxCell>
        <mxCell id="VRkNWiCjbg5eOUHFSivB-34" style="edgeStyle=orthogonalEdgeStyle;rounded=0;orthogonalLoop=1;jettySize=auto;html=1;entryX=0.5;entryY=0;entryDx=0;entryDy=0;startArrow=classic;startFill=1;" parent="1" source="VRkNWiCjbg5eOUHFSivB-19" target="VRkNWiCjbg5eOUHFSivB-21" edge="1">
          <mxGeometry relative="1" as="geometry" />
        </mxCell>
        <mxCell id="VRkNWiCjbg5eOUHFSivB-40" value="" style="edgeStyle=orthogonalEdgeStyle;rounded=0;orthogonalLoop=1;jettySize=auto;html=1;" parent="1" source="VRkNWiCjbg5eOUHFSivB-19" target="VRkNWiCjbg5eOUHFSivB-39" edge="1">
          <mxGeometry relative="1" as="geometry" />
        </mxCell>
        <mxCell id="VRkNWiCjbg5eOUHFSivB-19" value="Avaliar e comparar modelos" style="rounded=1;whiteSpace=wrap;html=1;absoluteArcSize=1;arcSize=14;strokeWidth=2;" parent="1" vertex="1">
          <mxGeometry x="802" y="118" width="100" height="100" as="geometry" />
        </mxCell>
        <mxCell id="VRkNWiCjbg5eOUHFSivB-21" value="Ajustar e treinar modelos" style="rounded=1;whiteSpace=wrap;html=1;absoluteArcSize=1;arcSize=14;strokeWidth=2;" parent="1" vertex="1">
          <mxGeometry x="802" y="295" width="100" height="100" as="geometry" />
        </mxCell>
        <mxCell id="VRkNWiCjbg5eOUHFSivB-41" style="edgeStyle=orthogonalEdgeStyle;rounded=0;orthogonalLoop=1;jettySize=auto;html=1;entryX=0.5;entryY=0;entryDx=0;entryDy=0;curved=1;" parent="1" source="VRkNWiCjbg5eOUHFSivB-39" target="VRkNWiCjbg5eOUHFSivB-17" edge="1">
          <mxGeometry relative="1" as="geometry">
            <Array as="points">
              <mxPoint x="1023" y="38" />
              <mxPoint x="672" y="38" />
            </Array>
          </mxGeometry>
        </mxCell>
        <mxCell id="VRkNWiCjbg5eOUHFSivB-44" value="Não" style="edgeLabel;html=1;align=center;verticalAlign=middle;resizable=0;points=[];" parent="VRkNWiCjbg5eOUHFSivB-41" vertex="1" connectable="0">
          <mxGeometry x="-0.907" y="4" relative="1" as="geometry">
            <mxPoint x="22" y="12" as="offset" />
          </mxGeometry>
        </mxCell>
        <mxCell id="spnk4lZNdezJRpc5Zfia-1" style="edgeStyle=orthogonalEdgeStyle;orthogonalLoop=1;jettySize=auto;html=1;entryX=0.5;entryY=0;entryDx=0;entryDy=0;curved=1;" parent="1" source="VRkNWiCjbg5eOUHFSivB-39" target="VRkNWiCjbg5eOUHFSivB-14" edge="1">
          <mxGeometry relative="1" as="geometry">
            <Array as="points">
              <mxPoint x="1023" y="26" />
              <mxPoint x="492" y="26" />
            </Array>
          </mxGeometry>
        </mxCell>
        <mxCell id="fzzF416HxyKDMj2RLmr--3" style="edgeStyle=orthogonalEdgeStyle;rounded=0;orthogonalLoop=1;jettySize=auto;html=1;entryX=0.5;entryY=0;entryDx=0;entryDy=0;" edge="1" parent="1" source="VRkNWiCjbg5eOUHFSivB-39" target="fzzF416HxyKDMj2RLmr--2">
          <mxGeometry relative="1" as="geometry" />
        </mxCell>
        <mxCell id="VRkNWiCjbg5eOUHFSivB-39" value="Atinje objetivo?" style="rhombus;whiteSpace=wrap;html=1;rounded=1;arcSize=14;strokeWidth=2;" parent="1" vertex="1">
          <mxGeometry x="972" y="118" width="101" height="101" as="geometry" />
        </mxCell>
        <mxCell id="fzzF416HxyKDMj2RLmr--2" value="Preparar modelo para dados futuros" style="rounded=1;whiteSpace=wrap;html=1;absoluteArcSize=1;arcSize=14;strokeWidth=2;" vertex="1" parent="1">
          <mxGeometry x="972.5" y="416" width="100" height="100" as="geometry" />
        </mxCell>
      </root>
    </mxGraphModel>
  </diagram>
</mxfile>
